<svg version="1.1" id="Layer_1" xmlns="http://www.w3.org/2000/svg" xmlns:xlink="http://www.w3.org/1999/xlink" x="0px" y="0px"
	 width="100%" viewBox="0 0 2000 2250" enable-background="new 0 0 2000 2250" xml:space="preserve">
<path fill="#4C6971" opacity="1.000000" stroke="none" 
	d="
M2.000000,1008.000000 
	C2.000000,672.737244 2.000000,337.474457 2.000000,2.105834 
	C668.455811,2.105834 1334.911743,2.105834 2002.000000,2.105834 
	C2002.000000,328.053467 2002.000000,654.107300 2001.560303,981.108154 
	C2001.120605,982.055054 2000.257324,981.879089 2000.151611,980.954834 
	C1999.482788,965.086914 1999.125366,950.131958 1998.307007,935.202393 
	C1997.180664,914.655945 1996.226074,894.078796 1994.269409,873.603577 
	C1990.419067,833.313293 1986.598267,792.999268 1981.512695,752.853821 
	C1976.586060,713.962708 1969.754761,675.296021 1958.059204,637.779053 
	C1953.134644,621.981995 1947.022949,606.411072 1939.893921,591.480713 
	C1930.335449,571.461609 1915.142212,555.292114 1899.898315,539.482483 
	C1866.093750,504.423462 1828.367798,473.822632 1789.672729,444.427338 
	C1722.287598,393.237305 1651.687012,346.777222 1579.629883,302.479095 
	C1510.731567,260.122894 1440.597290,219.898773 1368.505249,183.273148 
	C1321.066284,159.172241 1272.966309,136.284317 1224.492188,114.333130 
	C1175.711182,92.242912 1125.710205,73.057083 1073.765625,59.445683 
	C1050.587402,53.372108 1027.210815,48.386230 1003.099487,48.363075 
	C982.026550,48.342838 961.498291,52.425720 941.162659,57.466015 
	C893.260681,69.338768 847.263245,86.760086 801.877380,105.869034 
	C742.973206,130.669632 685.256592,158.053787 629.025513,188.390320 
	C576.046875,216.972260 523.247986,245.954086 471.240356,276.253784 
	C391.832520,322.516846 314.773804,372.517395 240.704803,427.002472 
	C193.499924,461.726410 147.737595,498.155121 106.432915,539.951904 
	C78.233978,568.486816 58.370106,601.381531 47.789825,640.346802 
	C31.098236,701.818970 22.942808,764.623474 16.388273,827.725281 
	C14.262619,848.189331 12.952061,868.743164 11.534342,889.274292 
	C9.660030,916.417725 7.986638,943.575500 6.348444,970.734497 
	C5.591547,983.282776 5.122616,995.848450 3.896254,1008.280396 
	C2.846258,1008.103027 2.423129,1008.051514 2.000000,1008.000000 
z"/>
<path fill="#4C6971" opacity="1.000000" stroke="none" 
	d="
M2002.000000,1272.000000 
	C2002.000000,1598.598022 2002.000000,1925.195923 2002.000000,2251.896973 
	C1335.542236,2251.896973 669.084412,2251.896973 2.000000,2251.896973 
	C2.000000,1917.279907 2.000000,1582.559326 2.554096,1246.923096 
	C3.473777,1245.954346 3.839361,1245.901367 4.702526,1246.529785 
	C6.015198,1265.467651 6.610472,1283.737305 7.694790,1301.977783 
	C9.507299,1332.468140 11.147911,1362.981445 13.757729,1393.408203 
	C16.536476,1425.804443 19.883883,1458.169189 23.843513,1490.442139 
	C28.700878,1530.031982 36.241951,1569.133179 45.872799,1607.897949 
	C56.358459,1650.103516 77.028725,1685.947388 107.796326,1716.503906 
	C132.626678,1741.163696 158.803436,1764.233887 186.056519,1786.123901 
	C250.520721,1837.902344 318.926239,1884.096924 388.638641,1928.385620 
	C470.425507,1980.345459 554.408142,2028.546631 640.541016,2072.923096 
	C704.446106,2105.847412 769.233765,2136.931396 836.309326,2163.025146 
	C875.713257,2178.354248 915.527588,2192.313232 956.967896,2201.170654 
	C980.555237,2206.212402 1004.282288,2208.134766 1028.309082,2204.801758 
	C1067.072266,2199.424316 1104.076172,2187.569824 1140.712280,2174.381836 
	C1185.819214,2158.144775 1229.709351,2139.023438 1273.129272,2118.736816 
	C1328.336060,2092.943359 1382.760498,2065.589844 1435.883301,2035.782837 
	C1484.628296,2008.432373 1533.113647,1980.558960 1580.904175,1951.581055 
	C1658.375122,1904.606201 1733.701782,1854.361694 1805.206787,1798.592041 
	C1843.024170,1769.096680 1879.748535,1738.367188 1911.964844,1702.613647 
	C1930.926758,1681.569458 1946.102783,1658.324829 1953.830688,1630.822144 
	C1959.582642,1610.351440 1965.676636,1589.916260 1970.085083,1569.139893 
	C1982.161865,1512.223877 1988.551636,1454.455688 1993.522217,1396.564331 
	C1996.390869,1363.156006 1997.866333,1329.626465 1999.827881,1296.143066 
	C2000.295044,1288.169678 2000.197144,1280.163208 2000.766113,1272.097412 
	C2001.173096,1272.022949 2002.000000,1272.000000 2002.000000,1272.000000 
z"/>
<path fill="#FDFEFE" opacity="1.000000" stroke="none" 
	d="
M2000.359253,1272.171875 
	C2000.197144,1280.163208 2000.295044,1288.169678 1999.827881,1296.143066 
	C1997.866333,1329.626465 1996.390869,1363.156006 1993.522217,1396.564331 
	C1988.551636,1454.455688 1982.161865,1512.223877 1970.085083,1569.139893 
	C1965.676636,1589.916260 1959.582642,1610.351440 1953.830688,1630.822144 
	C1946.102783,1658.324829 1930.926758,1681.569458 1911.964844,1702.613647 
	C1879.748535,1738.367188 1843.024170,1769.096680 1805.206787,1798.592041 
	C1733.701782,1854.361694 1658.375122,1904.606201 1580.904175,1951.581055 
	C1533.113647,1980.558960 1484.628296,2008.432373 1435.883301,2035.782837 
	C1382.760498,2065.589844 1328.336060,2092.943359 1273.129272,2118.736816 
	C1229.709351,2139.023438 1185.819214,2158.144775 1140.712280,2174.381836 
	C1104.076172,2187.569824 1067.072266,2199.424316 1028.309082,2204.801758 
	C1004.282288,2208.134766 980.555237,2206.212402 956.967896,2201.170654 
	C915.527588,2192.313232 875.713257,2178.354248 836.309326,2163.025146 
	C769.233765,2136.931396 704.446106,2105.847412 640.541016,2072.923096 
	C554.408142,2028.546631 470.425507,1980.345459 388.638641,1928.385620 
	C318.926239,1884.096924 250.520721,1837.902344 186.056519,1786.123901 
	C158.803436,1764.233887 132.626678,1741.163696 107.796326,1716.503906 
	C77.028725,1685.947388 56.358459,1650.103516 45.872799,1607.897949 
	C36.241951,1569.133179 28.700878,1530.031982 23.843513,1490.442139 
	C19.883883,1458.169189 16.536476,1425.804443 13.757729,1393.408203 
	C11.147911,1362.981445 9.507299,1332.468140 7.694790,1301.977783 
	C6.610472,1283.737305 6.015198,1265.467651 4.825844,1245.613037 
	C4.482708,1236.229492 4.701944,1228.437744 4.426990,1220.663208 
	C4.347527,1218.416260 2.848334,1216.219727 2.000007,1214.000000 
	C2.000000,1157.291504 2.000000,1100.583130 2.758485,1042.505615 
	C3.852353,1030.226562 4.187736,1019.316406 4.523120,1008.406250 
	C5.122616,995.848450 5.591547,983.282776 6.348444,970.734497 
	C7.986638,943.575500 9.660030,916.417725 11.534342,889.274292 
	C12.952061,868.743164 14.262619,848.189331 16.388273,827.725281 
	C22.942808,764.623474 31.098236,701.818970 47.789825,640.346802 
	C58.370106,601.381531 78.233978,568.486816 106.432915,539.951904 
	C147.737595,498.155121 193.499924,461.726410 240.704803,427.002472 
	C314.773804,372.517395 391.832520,322.516846 471.240356,276.253784 
	C523.247986,245.954086 576.046875,216.972260 629.025513,188.390320 
	C685.256592,158.053787 742.973206,130.669632 801.877380,105.869034 
	C847.263245,86.760086 893.260681,69.338768 941.162659,57.466015 
	C961.498291,52.425720 982.026550,48.342838 1003.099487,48.363075 
	C1027.210815,48.386230 1050.587402,53.372108 1073.765625,59.445683 
	C1125.710205,73.057083 1175.711182,92.242912 1224.492188,114.333130 
	C1272.966309,136.284317 1321.066284,159.172241 1368.505249,183.273148 
	C1440.597290,219.898773 1510.731567,260.122894 1579.629883,302.479095 
	C1651.687012,346.777222 1722.287598,393.237305 1789.672729,444.427338 
	C1828.367798,473.822632 1866.093750,504.423462 1899.898315,539.482483 
	C1915.142212,555.292114 1930.335449,571.461609 1939.893921,591.480713 
	C1947.022949,606.411072 1953.134644,621.981995 1958.059204,637.779053 
	C1969.754761,675.296021 1976.586060,713.962708 1981.512695,752.853821 
	C1986.598267,792.999268 1990.419067,833.313293 1994.269409,873.603577 
	C1996.226074,894.078796 1997.180664,914.655945 1998.307007,935.202393 
	C1999.125366,950.131958 1999.482788,965.086914 2000.042480,981.878052 
	C2000.033447,988.545044 1999.784546,993.380798 2000.106445,998.178223 
	C2000.328003,1001.479614 2001.340820,1004.727905 2002.000000,1008.000000 
	C2002.000000,1086.708496 2002.000000,1165.416870 2001.389404,1245.642090 
	C2000.638794,1255.496460 2000.499023,1263.834229 2000.359253,1272.171875 
M1535.447998,1904.430542 
	C1614.068237,1856.771973 1691.188843,1806.859619 1764.250000,1750.935425 
	C1798.079468,1725.040649 1831.052856,1698.113525 1859.999268,1666.619019 
	C1875.726440,1649.507568 1888.445923,1630.706299 1895.568848,1608.329102 
	C1906.193115,1574.952393 1912.561523,1540.654785 1917.573364,1506.114136 
	C1925.537720,1451.225220 1929.874634,1395.950073 1933.573608,1340.641846 
	C1935.457642,1312.469360 1936.666504,1284.240601 1937.589600,1256.017944 
	C1938.633667,1224.092651 1939.431641,1192.147583 1939.562744,1160.207886 
	C1939.685425,1130.258789 1938.897095,1100.303711 1938.324585,1070.354858 
	C1937.796875,1042.747925 1937.282593,1015.136475 1936.285278,987.544250 
	C1935.289307,959.989685 1934.117432,932.428528 1932.265137,904.921265 
	C1930.057861,872.140747 1927.251343,839.395935 1924.329956,806.669189 
	C1920.398071,762.624329 1914.160522,718.892395 1903.779785,675.877502 
	C1897.999512,651.925842 1891.650391,627.883057 1875.973755,608.059082 
	C1865.883667,595.299744 1855.334473,582.721619 1843.672363,571.423584 
	C1816.413330,545.015686 1786.978149,521.077087 1756.645996,498.263092 
	C1696.458008,452.993134 1633.737671,411.472717 1569.815186,371.704285 
	C1488.950806,321.395782 1406.265381,274.259460 1321.354614,231.189499 
	C1274.788940,207.569687 1227.296875,185.700684 1179.666870,164.277557 
	C1136.576538,144.896317 1092.375366,128.213745 1046.250488,117.203125 
	C1026.370361,112.457481 1006.261963,109.755646 985.897400,112.501328 
	C959.438171,116.068710 933.941101,123.738983 908.765015,132.389526 
	C859.627563,149.273300 812.106567,170.041977 765.076477,192.054764 
	C709.580139,218.030228 655.222778,246.209061 601.498779,275.616821 
	C539.889465,309.340912 479.319336,344.869324 419.884705,382.298981 
	C357.602783,421.521729 296.389862,462.330139 238.175308,507.455597 
	C205.284790,532.950989 173.151688,559.327881 145.095535,590.292542 
	C129.929962,607.030273 118.208946,625.573669 111.268974,647.314087 
	C102.439827,674.972656 96.844139,703.286865 92.108055,731.822876 
	C82.966660,786.901794 78.728607,842.517700 74.426292,898.108826 
	C72.530235,922.608215 71.494324,947.179504 70.376740,971.732239 
	C69.454567,991.991760 68.825989,1012.268250 68.364807,1032.544067 
	C67.925507,1051.858032 67.529968,1071.184204 67.714851,1090.499268 
	C68.176926,1138.771851 68.868217,1187.043091 69.699150,1235.310791 
	C70.036743,1254.920898 70.776207,1274.529907 71.691124,1294.122681 
	C72.806503,1318.008179 73.838196,1341.912964 75.735237,1365.743408 
	C78.684647,1402.793701 81.845200,1439.841187 85.821526,1476.792358 
	C89.910645,1514.791504 96.279465,1552.443359 105.890427,1589.514282 
	C113.019814,1617.013184 124.245644,1642.297119 143.998718,1663.130859 
	C154.772842,1674.494385 165.556625,1685.919922 177.139648,1696.432007 
	C213.159927,1729.122192 251.783661,1758.581909 291.379150,1786.777954 
	C340.489014,1821.748901 390.980591,1854.621216 442.249023,1886.333252 
	C524.375366,1937.132446 608.187805,1984.977661 694.521973,2028.218018 
	C740.314575,2051.153076 786.912598,2072.548828 833.677612,2093.452637 
	C873.776733,2111.376953 915.077576,2126.321533 957.761536,2137.143555 
	C985.566467,2144.192871 1013.240662,2145.513184 1041.520996,2138.878662 
	C1075.321777,2130.948730 1108.017822,2119.862549 1140.191406,2107.145264 
	C1213.932007,2077.997803 1285.067871,2043.281860 1355.162964,2006.302124 
	C1415.817505,1974.302979 1475.466553,1940.564087 1535.447998,1904.430542 
z"/>
<path fill="#83979C" opacity="1.000000" stroke="none" 
	d="
M3.896253,1008.280396 
	C4.187736,1019.316406 3.852353,1030.226562 2.758485,1041.568359 
	C2.000000,1031.290161 2.000000,1020.580261 2.000000,1008.935181 
	C2.423129,1008.051514 2.846258,1008.103027 3.896253,1008.280396 
z"/>
<path fill="#8A9CA1" opacity="1.000000" stroke="none" 
	d="
M2.000007,1214.933716 
	C2.848334,1216.219727 4.347527,1218.416260 4.426990,1220.663208 
	C4.701944,1228.437744 4.482708,1236.229492 4.328264,1244.931641 
	C3.839361,1245.901367 3.473777,1245.954346 2.554096,1246.003662 
	C2.000000,1235.955811 2.000000,1225.911621 2.000007,1214.933716 
z"/>
<path fill="#8A9DA2" opacity="1.000000" stroke="none" 
	d="
M2000.766113,1272.097412 
	C2000.499023,1263.834229 2000.638794,1255.496460 2001.389404,1246.579346 
	C2002.000000,1254.049072 2002.000000,1262.098145 2002.000000,1271.073608 
	C2002.000000,1272.000000 2001.173096,1272.022949 2000.766113,1272.097412 
z"/>
<path fill="#879A9F" opacity="1.000000" stroke="none" 
	d="
M2002.000000,1007.073608 
	C2001.340820,1004.727905 2000.328003,1001.479614 2000.106445,998.178223 
	C1999.784546,993.380798 2000.033447,988.545044 2000.148193,982.802368 
	C2000.257324,981.879089 2001.120605,982.055054 2001.560303,982.027527 
	C2002.000000,990.049072 2002.000000,998.098206 2002.000000,1007.073608 
z"/>
<path fill="#506D74" opacity="1.000000" stroke="none" 
	d="
M1534.828369,1904.814575 
	C1475.466553,1940.564087 1415.817505,1974.302979 1355.162964,2006.302124 
	C1285.067871,2043.281860 1213.932007,2077.997803 1140.191406,2107.145264 
	C1108.017822,2119.862549 1075.321777,2130.948730 1041.520996,2138.878662 
	C1013.240662,2145.513184 985.566467,2144.192871 957.761536,2137.143555 
	C915.077576,2126.321533 873.776733,2111.376953 833.677612,2093.452637 
	C786.912598,2072.548828 740.314575,2051.153076 694.521973,2028.218018 
	C608.187805,1984.977661 524.375366,1937.132446 442.249023,1886.333252 
	C390.980591,1854.621216 340.489014,1821.748901 291.379150,1786.777954 
	C251.783661,1758.581909 213.159927,1729.122192 177.139648,1696.432007 
	C165.556625,1685.919922 154.772842,1674.494385 143.998718,1663.130859 
	C124.245644,1642.297119 113.019814,1617.013184 105.890427,1589.514282 
	C96.279465,1552.443359 89.910645,1514.791504 85.821526,1476.792358 
	C81.845200,1439.841187 78.684647,1402.793701 75.735237,1365.743408 
	C73.838196,1341.912964 72.806503,1318.008179 71.691124,1294.122681 
	C70.776207,1274.529907 70.036743,1254.920898 69.699150,1235.310791 
	C68.868217,1187.043091 68.176926,1138.771851 67.714851,1090.499268 
	C67.529968,1071.184204 67.925507,1051.858032 68.364807,1032.544067 
	C68.825989,1012.268250 69.454567,991.991760 70.376740,971.732239 
	C71.494324,947.179504 72.530235,922.608215 74.426292,898.108826 
	C78.728607,842.517700 82.966660,786.901794 92.108055,731.822876 
	C96.844139,703.286865 102.439827,674.972656 111.268974,647.314087 
	C118.208946,625.573669 129.929962,607.030273 145.095535,590.292542 
	C173.151688,559.327881 205.284790,532.950989 238.175308,507.455597 
	C296.389862,462.330139 357.602783,421.521729 419.884705,382.298981 
	C479.319336,344.869324 539.889465,309.340912 601.498779,275.616821 
	C655.222778,246.209061 709.580139,218.030228 765.076477,192.054764 
	C812.106567,170.041977 859.627563,149.273300 908.765015,132.389526 
	C933.941101,123.738983 959.438171,116.068710 985.897400,112.501328 
	C1006.261963,109.755646 1026.370361,112.457481 1046.250488,117.203125 
	C1092.375366,128.213745 1136.576538,144.896317 1179.666870,164.277557 
	C1227.296875,185.700684 1274.788940,207.569687 1321.354614,231.189499 
	C1406.265381,274.259460 1488.950806,321.395782 1569.815186,371.704285 
	C1633.737671,411.472717 1696.458008,452.993134 1756.645996,498.263092 
	C1786.978149,521.077087 1816.413330,545.015686 1843.672363,571.423584 
	C1855.334473,582.721619 1865.883667,595.299744 1875.973755,608.059082 
	C1891.650391,627.883057 1897.999512,651.925842 1903.779785,675.877502 
	C1914.160522,718.892395 1920.398071,762.624329 1924.329956,806.669189 
	C1927.251343,839.395935 1930.057861,872.140747 1932.265137,904.921265 
	C1934.117432,932.428528 1935.289307,959.989685 1936.285278,987.544250 
	C1937.282593,1015.136475 1937.796875,1042.747925 1938.324585,1070.354858 
	C1938.897095,1100.303711 1939.685425,1130.258789 1939.562744,1160.207886 
	C1939.431641,1192.147583 1938.633667,1224.092651 1937.589600,1256.017944 
	C1936.666504,1284.240601 1935.457642,1312.469360 1933.573608,1340.641846 
	C1929.874634,1395.950073 1925.537720,1451.225220 1917.573364,1506.114136 
	C1912.561523,1540.654785 1906.193115,1574.952393 1895.568848,1608.329102 
	C1888.445923,1630.706299 1875.726440,1649.507568 1859.999268,1666.619019 
	C1831.052856,1698.113525 1798.079468,1725.040649 1764.250000,1750.935425 
	C1691.188843,1806.859619 1614.068237,1856.771973 1534.828369,1904.814575 
M148.388596,623.615784 
	C144.186172,631.901306 139.285980,639.912537 135.902649,648.520020 
	C121.561905,685.003906 115.437958,723.478882 110.283875,762.014587 
	C105.535042,797.520264 101.691528,833.176208 98.597801,868.865601 
	C95.731117,901.935669 93.952095,935.118591 92.490570,968.286865 
	C91.040993,1001.183594 89.819519,1034.125122 89.861038,1067.045288 
	C89.936203,1126.645020 90.705276,1186.249512 91.823441,1245.839966 
	C92.390533,1276.061523 94.032173,1306.275269 95.776306,1336.458496 
	C97.307846,1362.962646 99.714920,1389.415283 101.636955,1415.897827 
	C104.692513,1457.998291 109.934753,1499.848511 118.206200,1541.211670 
	C122.497162,1562.669556 128.307617,1583.930908 135.013458,1604.772095 
	C143.741028,1631.896729 163.226349,1652.035278 183.067444,1671.279053 
	C210.068451,1697.467529 239.318863,1721.126709 269.422882,1743.674927 
	C326.753845,1786.616699 386.385254,1826.156982 447.185272,1863.996582 
	C523.504578,1911.495117 601.548279,1955.965088 681.356506,1997.287720 
	C731.592285,2023.298340 782.430664,2048.141846 834.653320,2070.006592 
	C877.316284,2087.869141 920.265930,2104.898193 965.600098,2115.028076 
	C982.581665,2118.822510 999.748718,2121.243408 1017.048218,2119.195312 
	C1040.537720,2116.414795 1063.330322,2110.239502 1085.801758,2102.887939 
	C1145.375854,2083.398193 1202.460815,2057.901611 1258.787231,2030.688843 
	C1329.532959,1996.509521 1398.703735,1959.328979 1466.673584,1919.910889 
	C1551.097656,1870.950439 1633.746704,1819.220459 1712.775391,1761.876343 
	C1756.964966,1729.812134 1800.095581,1696.442627 1837.826660,1656.671143 
	C1854.282837,1639.325073 1868.225586,1620.348022 1874.629639,1596.949585 
	C1880.150757,1576.776733 1885.729004,1556.547363 1889.704956,1536.037231 
	C1902.111694,1472.040283 1906.883545,1407.117554 1911.535645,1342.224609 
	C1913.435547,1315.724731 1914.549927,1289.159668 1915.550415,1262.606567 
	C1916.552368,1236.016724 1917.509399,1209.404907 1917.515747,1182.802612 
	C1917.526123,1139.188599 1916.892944,1095.572266 1916.251099,1051.961060 
	C1915.908569,1028.687134 1915.201538,1005.412842 1914.256348,982.155090 
	C1913.177246,955.604309 1911.939087,929.053223 1910.233887,902.536743 
	C1908.636963,877.701111 1906.363159,852.908691 1904.344238,828.100708 
	C1901.082520,788.020630 1895.832764,748.202820 1887.752075,708.804993 
	C1884.749756,694.167358 1880.914795,679.694275 1877.234375,665.203308 
	C1869.143066,633.344177 1849.469727,608.766357 1826.631714,586.455261 
	C1798.036865,558.519836 1766.979004,533.440491 1735.006226,509.491302 
	C1683.009521,470.543243 1628.998901,434.564880 1574.070679,399.905579 
	C1493.812012,349.262939 1411.483032,302.229065 1327.264282,258.550781 
	C1274.388550,231.127869 1220.841431,205.014893 1165.782104,182.149704 
	C1126.743652,165.937744 1087.322144,150.839783 1046.121826,140.925262 
	C1023.596375,135.504700 1000.926086,133.785049 977.871277,137.639679 
	C950.172485,142.270752 923.612061,150.862335 897.316101,160.274612 
	C846.529785,178.452911 797.339233,200.455673 748.844788,223.977158 
	C690.740540,252.159744 633.567139,282.148407 577.350342,313.949127 
	C513.312622,350.174042 450.273865,388.032593 388.689270,428.311951 
	C333.221100,464.590881 278.812592,502.339630 227.604706,544.484924 
	C199.063019,567.975464 171.427597,592.495117 148.388596,623.615784 
z"/>
<path fill="#FFFFFF" opacity="1.000000" stroke="none" 
	d="
M148.820923,623.028320 
	C171.427597,592.495117 199.063019,567.975464 227.604706,544.484924 
	C278.812592,502.339630 333.221100,464.590881 388.689270,428.311951 
	C450.273865,388.032593 513.312622,350.174042 577.350342,313.949127 
	C633.567139,282.148407 690.740540,252.159744 748.844788,223.977158 
	C797.339233,200.455673 846.529785,178.452911 897.316101,160.274612 
	C923.612061,150.862335 950.172485,142.270752 977.871277,137.639679 
	C1000.926086,133.785049 1023.596375,135.504700 1046.121826,140.925262 
	C1087.322144,150.839783 1126.743652,165.937744 1165.782104,182.149704 
	C1220.841431,205.014893 1274.388550,231.127869 1327.264282,258.550781 
	C1411.483032,302.229065 1493.812012,349.262939 1574.070679,399.905579 
	C1628.998901,434.564880 1683.009521,470.543243 1735.006226,509.491302 
	C1766.979004,533.440491 1798.036865,558.519836 1826.631714,586.455261 
	C1849.469727,608.766357 1869.143066,633.344177 1877.234375,665.203308 
	C1880.914795,679.694275 1884.749756,694.167358 1887.752075,708.804993 
	C1895.832764,748.202820 1901.082520,788.020630 1904.344238,828.100708 
	C1906.363159,852.908691 1908.636963,877.701111 1910.233887,902.536743 
	C1911.939087,929.053223 1913.177246,955.604309 1914.256348,982.155090 
	C1915.201538,1005.412842 1915.908569,1028.687134 1916.251099,1051.961060 
	C1916.892944,1095.572266 1917.526123,1139.188599 1917.515747,1182.802612 
	C1917.509399,1209.404907 1916.552368,1236.016724 1915.550415,1262.606567 
	C1914.549927,1289.159668 1913.435547,1315.724731 1911.535645,1342.224609 
	C1906.883545,1407.117554 1902.111694,1472.040283 1889.704956,1536.037231 
	C1885.729004,1556.547363 1880.150757,1576.776733 1874.629639,1596.949585 
	C1868.225586,1620.348022 1854.282837,1639.325073 1837.826660,1656.671143 
	C1800.095581,1696.442627 1756.964966,1729.812134 1712.775391,1761.876343 
	C1633.746704,1819.220459 1551.097656,1870.950439 1466.673584,1919.910889 
	C1398.703735,1959.328979 1329.532959,1996.509521 1258.787231,2030.688843 
	C1202.460815,2057.901611 1145.375854,2083.398193 1085.801758,2102.887939 
	C1063.330322,2110.239502 1040.537720,2116.414795 1017.048218,2119.195312 
	C999.748718,2121.243408 982.581665,2118.822510 965.600098,2115.028076 
	C920.265930,2104.898193 877.316284,2087.869141 834.653320,2070.006592 
	C782.430664,2048.141846 731.592285,2023.298340 681.356506,1997.287720 
	C601.548279,1955.965088 523.504578,1911.495117 447.185272,1863.996582 
	C386.385254,1826.156982 326.753845,1786.616699 269.422882,1743.674927 
	C239.318863,1721.126709 210.068451,1697.467529 183.067444,1671.279053 
	C163.226349,1652.035278 143.741028,1631.896729 135.013458,1604.772095 
	C128.307617,1583.930908 122.497162,1562.669556 118.206200,1541.211670 
	C109.934753,1499.848511 104.692513,1457.998291 101.636955,1415.897827 
	C99.714920,1389.415283 97.307846,1362.962646 95.776306,1336.458496 
	C94.032173,1306.275269 92.390533,1276.061523 91.823441,1245.839966 
	C90.705276,1186.249512 89.936203,1126.645020 89.861038,1067.045288 
	C89.819519,1034.125122 91.040993,1001.183594 92.490570,968.286865 
	C93.952095,935.118591 95.731117,901.935669 98.597801,868.865601 
	C101.691528,833.176208 105.535042,797.520264 110.283875,762.014587 
	C115.437958,723.478882 121.561905,685.003906 135.902649,648.520020 
	C139.285980,639.912537 144.186172,631.901306 148.820923,623.028320 
M874.234985,1067.713257 
	C880.200378,1095.337158 872.092590,1117.907959 846.867676,1136.233276 
	C867.585938,1138.710205 885.347900,1141.426147 903.212830,1142.856689 
	C953.752441,1146.903687 1003.555481,1143.761963 1052.174316,1127.636230 
	C1127.385376,1102.690430 1173.787476,1025.027954 1157.169434,947.828491 
	C1143.745239,885.467773 1105.421631,843.616699 1043.761597,827.222778 
	C982.564575,810.951843 928.828186,827.816040 886.082642,874.766907 
	C839.357971,926.088501 832.460266,1005.172668 874.234985,1067.713257 
M1095.246460,1259.749634 
	C1089.448120,1253.947266 1082.536743,1250.025146 1074.577393,1248.205322 
	C1050.440063,1242.686401 1024.343018,1254.333252 1012.333801,1276.053345 
	C1002.859680,1293.188477 1001.603333,1311.506348 1005.392578,1330.352783 
	C1007.812744,1342.390015 1013.271240,1352.892456 1021.990662,1361.670410 
	C1042.596680,1382.414673 1081.179932,1383.751831 1096.966309,1364.530396 
	C1097.364014,1364.046143 1098.637085,1364.280884 1099.522095,1364.177856 
	C1100.282227,1377.786255 1098.309814,1389.531738 1093.824341,1398.532837 
	C1081.533691,1423.196533 1048.937866,1425.784790 1032.952026,1403.349854 
	C1031.072754,1400.712402 1029.343628,1397.968140 1027.253662,1394.837158 
	C1022.226929,1396.812012 1017.700562,1398.590210 1013.105408,1400.395508 
	C1014.869934,1407.607300 1019.086731,1412.291138 1023.696777,1416.652588 
	C1048.330933,1439.957764 1107.664673,1444.939697 1129.817261,1395.147461 
	C1135.067261,1383.346924 1136.701782,1370.909302 1136.678467,1358.115112 
	C1136.618042,1325.131470 1136.682983,1292.147583 1136.639526,1259.163818 
	C1136.635742,1256.308350 1136.198975,1253.453369 1135.998169,1251.021606 
	C1126.499390,1247.991699 1120.736938,1250.863770 1116.925781,1259.237305 
	C1114.351562,1264.892944 1110.581787,1270.004272 1107.143188,1275.696167 
	C1103.235107,1270.337036 1099.742798,1265.548096 1095.246460,1259.749634 
M1169.842896,1249.012085 
	C1170.022339,1290.629395 1170.200806,1332.246704 1170.407471,1373.863892 
	C1170.408691,1374.111328 1170.795288,1374.366455 1171.020386,1374.600342 
	C1171.250732,1374.839600 1171.503662,1375.057007 1171.345703,1374.909424 
	C1177.593018,1374.909424 1183.402100,1374.909424 1189.885742,1374.909424 
	C1189.885742,1362.479980 1189.885620,1350.857788 1189.885620,1339.235474 
	C1189.885620,1327.910645 1189.789673,1316.584595 1189.912720,1305.261108 
	C1190.035645,1293.947388 1189.356323,1282.578369 1190.496582,1269.091309 
	C1200.147339,1279.974609 1208.093140,1288.920898 1216.023315,1297.881226 
	C1237.214844,1321.825684 1258.362183,1345.809448 1279.645386,1369.671997 
	C1281.750488,1372.032349 1284.535645,1375.115479 1287.236572,1375.365967 
	C1295.363037,1376.119141 1303.604004,1375.637451 1312.081299,1375.637451 
	C1312.081299,1322.968384 1312.081299,1271.493896 1312.081299,1219.955078 
	C1305.424683,1219.955078 1299.387817,1219.955078 1292.804932,1219.955078 
	C1292.804932,1232.206543 1292.804932,1243.515137 1292.804932,1254.823730 
	C1292.804932,1266.481689 1292.995850,1278.143677 1292.749756,1289.796387 
	C1292.515991,1300.856445 1293.841064,1312.014282 1291.648926,1324.534668 
	C1288.143799,1320.791992 1285.648315,1318.252930 1283.291138,1315.591187 
	C1256.792114,1285.669312 1230.348511,1255.698120 1203.771240,1225.846069 
	C1201.440063,1223.227539 1198.442139,1219.768433 1195.455566,1219.443359 
	C1187.303223,1218.556396 1178.990967,1219.138184 1169.842896,1219.138184 
	C1169.842896,1229.147461 1169.842896,1238.083008 1169.842896,1249.012085 
M650.231812,1259.118652 
	C628.454773,1274.777588 620.285889,1309.286865 630.141968,1338.156860 
	C637.111877,1358.572388 650.972046,1371.844482 672.177612,1376.901245 
	C695.956543,1382.571777 714.877869,1374.342896 727.110229,1353.199219 
	C727.674438,1352.223877 728.388855,1351.335449 729.704346,1349.439453 
	C733.689636,1356.099243 737.073425,1361.774414 740.477356,1367.437378 
	C746.333862,1377.180420 746.610046,1377.277832 759.098145,1374.204468 
	C759.098145,1317.838501 759.098145,1261.415894 759.098145,1204.446777 
	C746.994263,1204.446777 735.502319,1204.446777 723.081909,1204.446777 
	C722.920532,1208.012329 722.659546,1211.245728 722.647766,1214.480103 
	C722.597900,1228.128906 722.673462,1241.778320 722.563110,1255.426514 
	C722.546936,1257.419434 721.774353,1259.406250 721.132385,1262.428833 
	C710.154541,1250.687500 697.482910,1247.042969 683.129578,1247.657471 
	C671.478149,1248.156372 660.961975,1251.704712 650.231812,1259.118652 
M857.877258,1364.661621 
	C858.061096,1368.159058 858.244995,1371.656616 858.430908,1375.192627 
	C870.832031,1375.192627 882.031921,1375.192627 893.983398,1375.192627 
	C894.177979,1371.494629 894.484497,1368.260132 894.495361,1365.024536 
	C894.547974,1349.365356 894.378418,1333.703857 894.592468,1318.047363 
	C894.678711,1311.742798 895.117126,1305.377930 896.151978,1299.166504 
	C897.809448,1289.217896 900.973755,1279.707886 907.956604,1272.055054 
	C918.981506,1259.972290 936.222900,1262.127319 943.651978,1276.711304 
	C945.876892,1281.079102 947.205017,1286.057739 948.119995,1290.911743 
	C951.901428,1310.972412 948.888611,1330.826538 944.705444,1350.369141 
	C941.521057,1365.245483 936.589417,1379.748047 932.126404,1395.507446 
	C935.526672,1397.387085 939.758728,1399.726685 944.428467,1402.308105 
	C948.180176,1398.160767 951.741272,1394.670166 954.790100,1390.778442 
	C970.302185,1370.977783 979.761169,1348.473877 984.249023,1323.803345 
	C987.030762,1308.511841 987.321045,1293.318726 982.086731,1278.430298 
	C976.446045,1262.385620 965.217468,1252.201294 948.723145,1248.449463 
	C924.127625,1242.854980 905.101868,1251.321045 891.807007,1273.112549 
	C890.949219,1274.518555 890.043640,1275.895386 888.557190,1278.235229 
	C884.500244,1271.376709 880.779907,1265.157104 877.127991,1258.897461 
	C871.342651,1248.981201 871.362061,1248.969849 857.877075,1251.247437 
	C857.877075,1288.277710 857.877075,1325.507935 857.877258,1364.661621 
M414.017548,1355.674072 
	C390.273041,1365.983154 367.453369,1358.069824 355.854858,1335.107422 
	C346.951660,1317.481079 345.694366,1298.746826 349.422882,1279.610352 
	C351.823700,1267.287964 356.918274,1256.128418 365.709930,1246.986084 
	C385.968781,1225.919067 418.492249,1230.594604 432.093384,1256.436523 
	C433.591888,1259.283691 435.065582,1262.143921 436.765991,1265.411743 
	C442.988739,1262.685913 448.386780,1260.321411 454.383942,1257.694458 
	C446.565765,1238.428711 433.051697,1226.299438 414.515472,1220.215698 
	C354.981506,1200.676392 300.999878,1243.059814 303.716064,1300.341797 
	C305.216736,1331.990479 319.773682,1356.028076 348.190674,1369.825317 
	C377.265411,1383.941650 406.344116,1382.025391 433.540710,1363.750000 
	C442.778046,1357.542847 449.471405,1348.982422 453.887054,1337.416626 
	C447.592133,1334.946167 441.863251,1332.697876 435.746460,1330.297363 
	C430.665802,1340.470947 424.993073,1349.409790 414.017548,1355.674072 
M607.761536,1295.685669 
	C603.674072,1281.422363 595.751465,1269.810913 583.770630,1261.010742 
	C558.050476,1242.118530 520.442383,1242.439819 494.984131,1261.764893 
	C460.571014,1287.887451 461.532043,1339.914551 496.955170,1364.669800 
	C511.414856,1374.774902 527.641174,1379.281616 545.150513,1377.838135 
	C593.995483,1373.811279 617.192871,1333.057861 607.761536,1295.685669 
M1462.355591,1302.670532 
	C1468.398438,1282.342407 1458.892700,1263.149902 1440.191650,1254.749512 
	C1422.306030,1246.715332 1403.548584,1244.682861 1384.549438,1249.203247 
	C1353.961426,1256.480713 1335.300415,1282.311523 1336.106079,1315.037109 
	C1336.870239,1346.077148 1357.012329,1370.468262 1387.535156,1376.436279 
	C1410.281006,1380.883667 1431.295410,1376.745605 1449.179932,1361.197144 
	C1454.093506,1356.925049 1458.387939,1351.908203 1459.841797,1344.648193 
	C1454.690552,1342.735229 1450.122192,1341.038696 1445.811768,1339.437988 
	C1430.593262,1361.082153 1415.606689,1367.378052 1397.479126,1360.338745 
	C1384.482666,1355.291870 1375.573975,1341.594482 1376.975586,1328.403564 
	C1378.911865,1328.836304 1380.803589,1329.288208 1382.707520,1329.680298 
	C1397.557739,1332.737305 1412.477173,1333.417236 1427.301514,1329.893799 
	C1442.405396,1326.303833 1455.552124,1319.755127 1462.355591,1302.670532 
M1573.485962,1370.660767 
	C1588.987915,1363.000977 1595.808350,1350.164307 1594.859863,1333.301270 
	C1593.950073,1317.126343 1582.582520,1309.696655 1568.973267,1305.134644 
	C1558.270630,1301.547119 1547.225586,1298.991089 1536.372437,1295.839478 
	C1530.957764,1294.266968 1525.477173,1292.750977 1520.307739,1290.549194 
	C1514.416138,1288.039429 1510.522949,1283.562012 1510.784790,1276.675171 
	C1511.020996,1270.458862 1515.202026,1265.944336 1522.941650,1263.925171 
	C1542.672607,1258.777588 1559.635620,1264.630249 1569.226685,1281.834717 
	C1569.977051,1283.180664 1570.909058,1284.425293 1572.176514,1286.356812 
	C1579.343018,1280.430786 1585.884399,1275.021729 1593.076538,1269.074463 
	C1589.454712,1265.903687 1586.982300,1263.146973 1583.981934,1261.206177 
	C1559.694092,1245.496704 1533.741821,1243.250854 1506.590942,1252.245605 
	C1503.481079,1253.275757 1500.520630,1255.031006 1497.792236,1256.891968 
	C1484.952026,1265.648560 1480.265991,1278.154785 1481.692749,1293.239868 
	C1482.956421,1306.601562 1491.777222,1313.941650 1503.251587,1318.199097 
	C1513.822266,1322.121216 1524.829224,1324.867920 1535.645142,1328.128784 
	C1541.687012,1329.950439 1547.893433,1331.356201 1553.736450,1333.677490 
	C1562.430786,1337.131470 1566.399536,1342.676880 1565.692017,1348.986450 
	C1564.988892,1355.256592 1559.731201,1359.685425 1550.731689,1361.557739 
	C1549.756470,1361.760620 1548.750122,1361.809326 1547.768188,1361.985840 
	C1530.965576,1365.007080 1517.982422,1357.881348 1506.649536,1346.458740 
	C1504.393677,1344.185059 1502.329712,1341.721069 1499.800903,1338.929321 
	C1492.914185,1344.572876 1486.575195,1349.767456 1479.711548,1355.392090 
	C1481.437744,1357.039307 1482.514893,1358.225952 1483.747314,1359.219971 
	C1510.770508,1381.015625 1540.546631,1382.882080 1573.485962,1370.660767 
M1665.701172,1366.469727 
	C1665.862183,1333.201416 1666.022217,1299.933228 1666.200806,1266.665039 
	C1666.202393,1266.371460 1666.406128,1266.040649 1666.602173,1265.797119 
	C1666.805298,1265.544800 1667.114380,1265.377563 1668.734863,1264.116943 
	C1679.180176,1264.116943 1691.002930,1264.116943 1702.938721,1264.116943 
	C1702.938721,1258.948853 1702.938721,1254.861938 1702.938721,1249.786621 
	C1690.373413,1249.786621 1678.537720,1249.786621 1665.422119,1249.786621 
	C1665.422119,1234.049194 1665.422119,1219.275024 1665.422119,1204.502197 
	C1652.586304,1204.502197 1641.078247,1204.502197 1628.201660,1204.502197 
	C1628.201660,1219.816528 1628.201660,1234.567749 1628.201660,1250.396973 
	C1620.031494,1250.396973 1613.230103,1250.396973 1606.663330,1250.396973 
	C1606.663330,1255.671631 1606.663330,1259.787231 1606.663330,1264.687744 
	C1614.033325,1264.687744 1620.586914,1264.687744 1628.415283,1264.687744 
	C1628.415283,1301.869019 1628.415283,1338.267212 1628.415283,1374.953003 
	C1641.452026,1374.953003 1653.178955,1374.953003 1665.199219,1374.953003 
	C1665.403931,1372.242310 1665.551270,1370.291748 1665.701172,1366.469727 
M790.142151,1297.000000 
	C790.142151,1322.859985 790.142151,1348.719971 790.142151,1375.159668 
	C802.804138,1375.159668 814.288757,1375.159668 827.239990,1375.159668 
	C827.227417,1333.521118 827.303894,1292.151489 827.180298,1250.699463 
	C814.210693,1250.699463 802.713318,1250.699463 790.142151,1250.699463 
	C790.142151,1265.878784 790.142151,1280.439331 790.142151,1297.000000 
M827.975464,1225.047241 
	C828.157043,1223.071289 828.569885,1221.085083 828.481812,1219.121216 
	C827.995972,1208.293213 820.104675,1200.298584 809.618042,1199.863159 
	C799.140381,1199.428101 790.280029,1206.803833 788.760803,1217.225464 
	C787.313354,1227.155273 794.382202,1237.119873 804.519165,1239.439209 
	C813.631165,1241.524048 821.734070,1236.963501 827.975464,1225.047241 
z"/>
<path fill="#2A7AFF" opacity="1.000000" stroke="none" 
	d="
M873.898621,1066.989014 
	C832.460266,1005.172668 839.357971,926.088501 886.082642,874.766907 
	C928.828186,827.816040 982.564575,810.951843 1043.761597,827.222778 
	C1105.421631,843.616699 1143.745239,885.467773 1157.169434,947.828491 
	C1173.787476,1025.027954 1127.385376,1102.690430 1052.174316,1127.636230 
	C1003.555481,1143.761963 953.752441,1146.903687 903.212830,1142.856689 
	C885.347900,1141.426147 867.585938,1138.710205 846.867676,1136.233276 
	C872.092590,1117.907959 880.200378,1095.337158 873.898621,1066.989014 
M1101.588135,911.486450 
	C1095.962402,904.091125 1090.859375,896.201416 1084.511230,889.489319 
	C1080.808960,885.574829 1075.440674,882.457703 1070.246582,880.898193 
	C1060.131592,877.861084 1052.061279,885.456726 1054.199219,895.720581 
	C1055.258911,900.808411 1057.975098,905.578003 1060.136353,910.404419 
	C1065.697754,922.823486 1072.116699,934.918579 1076.801270,947.654907 
	C1082.416992,962.922852 1081.627441,978.379456 1074.013306,993.155151 
	C1072.646729,995.807251 1071.391357,998.574402 1070.541748,1001.424744 
	C1067.796387,1010.634521 1071.873657,1017.652466 1078.354004,1023.600037 
	C1084.784424,1029.501831 1092.117798,1029.662720 1099.675415,1026.020386 
	C1105.844604,1023.047180 1110.642944,1018.833191 1113.072021,1012.018677 
	C1117.119873,1000.662354 1119.911865,989.152588 1120.500000,977.037598 
	C1121.642212,953.508972 1114.431152,932.466003 1101.588135,911.486450 
M1023.808594,1044.402710 
	C1021.007019,1045.412842 1018.007874,1046.067749 1015.439087,1047.496338 
	C1005.924255,1052.787842 1001.441284,1064.327637 1004.459900,1075.041626 
	C1007.262939,1084.990479 1016.328613,1091.984131 1026.565796,1092.095093 
	C1037.185303,1092.210205 1046.466553,1085.063354 1049.313843,1074.578125 
	C1053.525024,1059.070801 1043.020874,1045.757690 1023.808594,1044.402710 
z"/>
<path fill="#2D7CFF" opacity="1.000000" stroke="none" 
	d="
M1095.748535,1260.254395 
	C1099.742798,1265.548096 1103.235107,1270.337036 1107.143188,1275.696167 
	C1110.581787,1270.004272 1114.351562,1264.892944 1116.925781,1259.237305 
	C1120.736938,1250.863770 1126.499390,1247.991699 1135.998169,1251.021606 
	C1136.198975,1253.453369 1136.635742,1256.308350 1136.639526,1259.163818 
	C1136.682983,1292.147583 1136.618042,1325.131470 1136.678467,1358.115112 
	C1136.701782,1370.909302 1135.067261,1383.346924 1129.817261,1395.147461 
	C1107.664673,1444.939697 1048.330933,1439.957764 1023.696777,1416.652588 
	C1019.086731,1412.291138 1014.869934,1407.607300 1013.105408,1400.395508 
	C1017.700562,1398.590210 1022.226929,1396.812012 1027.253662,1394.837158 
	C1029.343628,1397.968140 1031.072754,1400.712402 1032.952026,1403.349854 
	C1048.937866,1425.784790 1081.533691,1423.196533 1093.824341,1398.532837 
	C1098.309814,1389.531738 1100.282227,1377.786255 1099.522095,1364.177856 
	C1098.637085,1364.280884 1097.364014,1364.046143 1096.966309,1364.530396 
	C1081.179932,1383.751831 1042.596680,1382.414673 1021.990662,1361.670410 
	C1013.271240,1352.892456 1007.812744,1342.390015 1005.392578,1330.352783 
	C1001.603333,1311.506348 1002.859680,1293.188477 1012.333801,1276.053345 
	C1024.343018,1254.333252 1050.440063,1242.686401 1074.577393,1248.205322 
	C1082.536743,1250.025146 1089.448120,1253.947266 1095.748535,1260.254395 
M1072.441040,1360.219482 
	C1083.010132,1359.157593 1089.165771,1352.247070 1093.074829,1343.414673 
	C1101.975952,1323.302979 1102.252563,1302.720337 1094.519409,1282.170532 
	C1090.372925,1271.152100 1082.254028,1264.908569 1070.288330,1264.546143 
	C1059.463745,1264.218384 1050.373779,1270.438354 1046.020874,1282.039551 
	C1038.363159,1302.448486 1038.333130,1323.167480 1046.205811,1343.515381 
	C1050.401978,1354.360840 1058.453979,1360.764160 1072.441040,1360.219482 
z"/>
<path fill="#2E7CFF" opacity="1.000000" stroke="none" 
	d="
M1169.842896,1248.015381 
	C1169.842896,1238.083008 1169.842896,1229.147461 1169.842896,1219.138184 
	C1178.990967,1219.138184 1187.303223,1218.556396 1195.455566,1219.443359 
	C1198.442139,1219.768433 1201.440063,1223.227539 1203.771240,1225.846069 
	C1230.348511,1255.698120 1256.792114,1285.669312 1283.291138,1315.591187 
	C1285.648315,1318.252930 1288.143799,1320.791992 1291.648926,1324.534668 
	C1293.841064,1312.014282 1292.515991,1300.856445 1292.749756,1289.796387 
	C1292.995850,1278.143677 1292.804932,1266.481689 1292.804932,1254.823730 
	C1292.804932,1243.515137 1292.804932,1232.206543 1292.804932,1219.955078 
	C1299.387817,1219.955078 1305.424683,1219.955078 1312.081299,1219.955078 
	C1312.081299,1271.493896 1312.081299,1322.968384 1312.081299,1375.637451 
	C1303.604004,1375.637451 1295.363037,1376.119141 1287.236572,1375.365967 
	C1284.535645,1375.115479 1281.750488,1372.032349 1279.645386,1369.671997 
	C1258.362183,1345.809448 1237.214844,1321.825684 1216.023315,1297.881226 
	C1208.093140,1288.920898 1200.147339,1279.974609 1190.496582,1269.091309 
	C1189.356323,1282.578369 1190.035645,1293.947388 1189.912720,1305.261108 
	C1189.789673,1316.584595 1189.885620,1327.910645 1189.885620,1339.235474 
	C1189.885620,1350.857788 1189.885742,1362.479980 1189.885742,1374.909424 
	C1183.402100,1374.909424 1177.593018,1374.909424 1171.345703,1374.909424 
	C1171.503662,1375.057007 1171.250732,1374.839600 1171.020386,1374.600342 
	C1170.795288,1374.366455 1170.408691,1374.111328 1170.407471,1373.863892 
	C1170.200806,1332.246704 1170.022339,1290.629395 1169.842896,1248.015381 
z"/>
<path fill="#2F7DFF" opacity="1.000000" stroke="none" 
	d="
M650.810913,1258.687378 
	C660.961975,1251.704712 671.478149,1248.156372 683.129578,1247.657471 
	C697.482910,1247.042969 710.154541,1250.687500 721.132385,1262.428833 
	C721.774353,1259.406250 722.546936,1257.419434 722.563110,1255.426514 
	C722.673462,1241.778320 722.597900,1228.128906 722.647766,1214.480103 
	C722.659546,1211.245728 722.920532,1208.012329 723.081909,1204.446777 
	C735.502319,1204.446777 746.994263,1204.446777 759.098145,1204.446777 
	C759.098145,1261.415894 759.098145,1317.838501 759.098145,1374.204468 
	C746.610046,1377.277832 746.333862,1377.180420 740.477356,1367.437378 
	C737.073425,1361.774414 733.689636,1356.099243 729.704346,1349.439453 
	C728.388855,1351.335449 727.674438,1352.223877 727.110229,1353.199219 
	C714.877869,1374.342896 695.956543,1382.571777 672.177612,1376.901245 
	C650.972046,1371.844482 637.111877,1358.572388 630.141968,1338.156860 
	C620.285889,1309.286865 628.454773,1274.777588 650.810913,1258.687378 
M666.168823,1336.128052 
	C667.603394,1339.841797 668.677917,1343.747925 670.540649,1347.232788 
	C675.959106,1357.370117 684.772827,1361.757324 696.180664,1360.568237 
	C707.071960,1359.432983 713.633301,1352.795654 717.366211,1343.233398 
	C723.339417,1327.932373 724.186340,1312.011475 720.301941,1296.179321 
	C718.516357,1288.901855 715.723450,1281.379761 711.484070,1275.294434 
	C701.445435,1260.884277 681.716431,1261.655518 672.086304,1276.382324 
	C669.411499,1280.472656 667.439880,1285.274170 666.231812,1290.025635 
	C662.486267,1304.756592 662.559753,1319.641113 666.168823,1336.128052 
z"/>
<path fill="#2D7CFF" opacity="1.000000" stroke="none" 
	d="
M857.877197,1363.699829 
	C857.877075,1325.507935 857.877075,1288.277710 857.877075,1251.247437 
	C871.362061,1248.969849 871.342651,1248.981201 877.127991,1258.897461 
	C880.779907,1265.157104 884.500244,1271.376709 888.557190,1278.235229 
	C890.043640,1275.895386 890.949219,1274.518555 891.807007,1273.112549 
	C905.101868,1251.321045 924.127625,1242.854980 948.723145,1248.449463 
	C965.217468,1252.201294 976.446045,1262.385620 982.086731,1278.430298 
	C987.321045,1293.318726 987.030762,1308.511841 984.249023,1323.803345 
	C979.761169,1348.473877 970.302185,1370.977783 954.790100,1390.778442 
	C951.741272,1394.670166 948.180176,1398.160767 944.428467,1402.308105 
	C939.758728,1399.726685 935.526672,1397.387085 932.126404,1395.507446 
	C936.589417,1379.748047 941.521057,1365.245483 944.705444,1350.369141 
	C948.888611,1330.826538 951.901428,1310.972412 948.119995,1290.911743 
	C947.205017,1286.057739 945.876892,1281.079102 943.651978,1276.711304 
	C936.222900,1262.127319 918.981506,1259.972290 907.956604,1272.055054 
	C900.973755,1279.707886 897.809448,1289.217896 896.151978,1299.166504 
	C895.117126,1305.377930 894.678711,1311.742798 894.592468,1318.047363 
	C894.378418,1333.703857 894.547974,1349.365356 894.495361,1365.024536 
	C894.484497,1368.260132 894.177979,1371.494629 893.983398,1375.192627 
	C882.031921,1375.192627 870.832031,1375.192627 858.430908,1375.192627 
	C858.244995,1371.656616 858.061096,1368.159058 857.877197,1363.699829 
z"/>
<path fill="#2E7CFF" opacity="1.000000" stroke="none" 
	d="
M414.679993,1355.296509 
	C424.993073,1349.409790 430.665802,1340.470947 435.746460,1330.297363 
	C441.863251,1332.697876 447.592133,1334.946167 453.887054,1337.416626 
	C449.471405,1348.982422 442.778046,1357.542847 433.540710,1363.750000 
	C406.344116,1382.025391 377.265411,1383.941650 348.190674,1369.825317 
	C319.773682,1356.028076 305.216736,1331.990479 303.716064,1300.341797 
	C300.999878,1243.059814 354.981506,1200.676392 414.515472,1220.215698 
	C433.051697,1226.299438 446.565765,1238.428711 454.383942,1257.694458 
	C448.386780,1260.321411 442.988739,1262.685913 436.765991,1265.411743 
	C435.065582,1262.143921 433.591888,1259.283691 432.093384,1256.436523 
	C418.492249,1230.594604 385.968781,1225.919067 365.709930,1246.986084 
	C356.918274,1256.128418 351.823700,1267.287964 349.422882,1279.610352 
	C345.694366,1298.746826 346.951660,1317.481079 355.854858,1335.107422 
	C367.453369,1358.069824 390.273041,1365.983154 414.679993,1355.296509 
z"/>
<path fill="#2E7CFF" opacity="1.000000" stroke="none" 
	d="
M607.928345,1296.502441 
	C617.192871,1333.057861 593.995483,1373.811279 545.150513,1377.838135 
	C527.641174,1379.281616 511.414856,1374.774902 496.955170,1364.669800 
	C461.532043,1339.914551 460.571014,1287.887451 494.984131,1261.764893 
	C520.442383,1242.439819 558.050476,1242.118530 583.770630,1261.010742 
	C595.751465,1269.810913 603.674072,1281.422363 607.928345,1296.502441 
M548.849670,1263.232056 
	C533.513855,1260.148193 522.757385,1263.581787 516.378357,1275.837891 
	C503.727814,1300.143921 503.816772,1324.991333 516.447571,1349.412109 
	C519.914551,1356.115356 525.815369,1360.511597 533.377502,1362.344360 
	C547.312500,1365.721680 560.109253,1359.284546 566.208923,1344.651611 
	C574.896118,1323.811035 574.634094,1302.568481 566.842651,1281.473999 
	C563.857605,1273.392090 558.574158,1267.127075 548.849670,1263.232056 
z"/>
<path fill="#2E7CFF" opacity="1.000000" stroke="none" 
	d="
M1462.127441,1303.442505 
	C1455.552124,1319.755127 1442.405396,1326.303833 1427.301514,1329.893799 
	C1412.477173,1333.417236 1397.557739,1332.737305 1382.707520,1329.680298 
	C1380.803589,1329.288208 1378.911865,1328.836304 1376.975586,1328.403564 
	C1375.573975,1341.594482 1384.482666,1355.291870 1397.479126,1360.338745 
	C1415.606689,1367.378052 1430.593262,1361.082153 1445.811768,1339.437988 
	C1450.122192,1341.038696 1454.690552,1342.735229 1459.841797,1344.648193 
	C1458.387939,1351.908203 1454.093506,1356.925049 1449.179932,1361.197144 
	C1431.295410,1376.745605 1410.281006,1380.883667 1387.535156,1376.436279 
	C1357.012329,1370.468262 1336.870239,1346.077148 1336.106079,1315.037109 
	C1335.300415,1282.311523 1353.961426,1256.480713 1384.549438,1249.203247 
	C1403.548584,1244.682861 1422.306030,1246.715332 1440.191650,1254.749512 
	C1458.892700,1263.149902 1468.398438,1282.342407 1462.127441,1303.442505 
M1408.683105,1262.548096 
	C1401.075928,1262.556885 1394.052979,1264.578491 1388.755859,1270.145752 
	C1376.560913,1282.962280 1373.084106,1298.571655 1373.914917,1315.376587 
	C1388.315186,1319.816772 1404.407349,1319.931152 1413.475220,1317.926392 
	C1423.288452,1315.757080 1430.874146,1310.606812 1433.174683,1300.461426 
	C1437.359619,1282.005005 1429.942993,1264.394653 1408.683105,1262.548096 
z"/>
<path fill="#2F7DFF" opacity="1.000000" stroke="none" 
	d="
M1572.821289,1371.021973 
	C1540.546631,1382.882080 1510.770508,1381.015625 1483.747314,1359.219971 
	C1482.514893,1358.225952 1481.437744,1357.039307 1479.711548,1355.392090 
	C1486.575195,1349.767456 1492.914185,1344.572876 1499.800903,1338.929321 
	C1502.329712,1341.721069 1504.393677,1344.185059 1506.649536,1346.458740 
	C1517.982422,1357.881348 1530.965576,1365.007080 1547.768188,1361.985840 
	C1548.750122,1361.809326 1549.756470,1361.760620 1550.731689,1361.557739 
	C1559.731201,1359.685425 1564.988892,1355.256592 1565.692017,1348.986450 
	C1566.399536,1342.676880 1562.430786,1337.131470 1553.736450,1333.677490 
	C1547.893433,1331.356201 1541.687012,1329.950439 1535.645142,1328.128784 
	C1524.829224,1324.867920 1513.822266,1322.121216 1503.251587,1318.199097 
	C1491.777222,1313.941650 1482.956421,1306.601562 1481.692749,1293.239868 
	C1480.265991,1278.154785 1484.952026,1265.648560 1497.792236,1256.891968 
	C1500.520630,1255.031006 1503.481079,1253.275757 1506.590942,1252.245605 
	C1533.741821,1243.250854 1559.694092,1245.496704 1583.981934,1261.206177 
	C1586.982300,1263.146973 1589.454712,1265.903687 1593.076538,1269.074463 
	C1585.884399,1275.021729 1579.343018,1280.430786 1572.176514,1286.356812 
	C1570.909058,1284.425293 1569.977051,1283.180664 1569.226685,1281.834717 
	C1559.635620,1264.630249 1542.672607,1258.777588 1522.941650,1263.925171 
	C1515.202026,1265.944336 1511.020996,1270.458862 1510.784790,1276.675171 
	C1510.522949,1283.562012 1514.416138,1288.039429 1520.307739,1290.549194 
	C1525.477173,1292.750977 1530.957764,1294.266968 1536.372437,1295.839478 
	C1547.225586,1298.991089 1558.270630,1301.547119 1568.973267,1305.134644 
	C1582.582520,1309.696655 1593.950073,1317.126343 1594.859863,1333.301270 
	C1595.808350,1350.164307 1588.987915,1363.000977 1572.821289,1371.021973 
z"/>
<path fill="#307DFF" opacity="1.000000" stroke="none" 
	d="
M1665.699951,1367.405518 
	C1665.551270,1370.291748 1665.403931,1372.242310 1665.199219,1374.953003 
	C1653.178955,1374.953003 1641.452026,1374.953003 1628.415283,1374.953003 
	C1628.415283,1338.267212 1628.415283,1301.869019 1628.415283,1264.687744 
	C1620.586914,1264.687744 1614.033325,1264.687744 1606.663330,1264.687744 
	C1606.663330,1259.787231 1606.663330,1255.671631 1606.663330,1250.396973 
	C1613.230103,1250.396973 1620.031494,1250.396973 1628.201660,1250.396973 
	C1628.201660,1234.567749 1628.201660,1219.816528 1628.201660,1204.502197 
	C1641.078247,1204.502197 1652.586304,1204.502197 1665.422119,1204.502197 
	C1665.422119,1219.275024 1665.422119,1234.049194 1665.422119,1249.786621 
	C1678.537720,1249.786621 1690.373413,1249.786621 1702.938721,1249.786621 
	C1702.938721,1254.861938 1702.938721,1258.948853 1702.938721,1264.116943 
	C1691.002930,1264.116943 1679.180176,1264.116943 1668.734863,1264.116943 
	C1667.114380,1265.377563 1666.805298,1265.544800 1666.602173,1265.797119 
	C1666.406128,1266.040649 1666.202393,1266.371460 1666.200806,1266.665039 
	C1666.022217,1299.933228 1665.862183,1333.201416 1665.699951,1367.405518 
z"/>
<path fill="#317EFF" opacity="1.000000" stroke="none" 
	d="
M790.142151,1296.000000 
	C790.142151,1280.439331 790.142151,1265.878784 790.142151,1250.699463 
	C802.713318,1250.699463 814.210693,1250.699463 827.180298,1250.699463 
	C827.303894,1292.151489 827.227417,1333.521118 827.239990,1375.159668 
	C814.288757,1375.159668 802.804138,1375.159668 790.142151,1375.159668 
	C790.142151,1348.719971 790.142151,1322.859985 790.142151,1296.000000 
z"/>
<path fill="#2F7DFF" opacity="1.000000" stroke="none" 
	d="
M827.778198,1225.753174 
	C821.734070,1236.963501 813.631165,1241.524048 804.519165,1239.439209 
	C794.382202,1237.119873 787.313354,1227.155273 788.760803,1217.225464 
	C790.280029,1206.803833 799.140381,1199.428101 809.618042,1199.863159 
	C820.104675,1200.298584 827.995972,1208.293213 828.481812,1219.121216 
	C828.569885,1221.085083 828.157043,1223.071289 827.778198,1225.753174 
z"/>
<path fill="#FBFDFF" opacity="1.000000" stroke="none" 
	d="
M1101.928467,912.128906 
	C1114.431152,932.466003 1121.642212,953.508972 1120.500000,977.037598 
	C1119.911865,989.152588 1117.119873,1000.662354 1113.072021,1012.018677 
	C1110.642944,1018.833191 1105.844604,1023.047180 1099.675415,1026.020386 
	C1092.117798,1029.662720 1084.784424,1029.501831 1078.354004,1023.600037 
	C1071.873657,1017.652466 1067.796387,1010.634521 1070.541748,1001.424744 
	C1071.391357,998.574402 1072.646729,995.807251 1074.013306,993.155151 
	C1081.627441,978.379456 1082.416992,962.922852 1076.801270,947.654907 
	C1072.116699,934.918579 1065.697754,922.823486 1060.136353,910.404419 
	C1057.975098,905.578003 1055.258911,900.808411 1054.199219,895.720581 
	C1052.061279,885.456726 1060.131592,877.861084 1070.246582,880.898193 
	C1075.440674,882.457703 1080.808960,885.574829 1084.511230,889.489319 
	C1090.859375,896.201416 1095.962402,904.091125 1101.928467,912.128906 
z"/>
<path fill="#F9FCFF" opacity="1.000000" stroke="none" 
	d="
M1024.603760,1044.335327 
	C1043.020874,1045.757690 1053.525024,1059.070801 1049.313843,1074.578125 
	C1046.466553,1085.063354 1037.185303,1092.210205 1026.565796,1092.095093 
	C1016.328613,1091.984131 1007.262939,1084.990479 1004.459900,1075.041626 
	C1001.441284,1064.327637 1005.924255,1052.787842 1015.439087,1047.496338 
	C1018.007874,1046.067749 1021.007019,1045.412842 1024.603760,1044.335327 
z"/>
<path fill="#FBFDFF" opacity="1.000000" stroke="none" 
	d="
M1071.613770,1360.251221 
	C1058.453979,1360.764160 1050.401978,1354.360840 1046.205811,1343.515381 
	C1038.333130,1323.167480 1038.363159,1302.448486 1046.020874,1282.039551 
	C1050.373779,1270.438354 1059.463745,1264.218384 1070.288330,1264.546143 
	C1082.254028,1264.908569 1090.372925,1271.152100 1094.519409,1282.170532 
	C1102.252563,1302.720337 1101.975952,1323.302979 1093.074829,1343.414673 
	C1089.165771,1352.247070 1083.010132,1359.157593 1071.613770,1360.251221 
z"/>
<path fill="#FCFDFF" opacity="1.000000" stroke="none" 
	d="
M666.002563,1335.311646 
	C662.559753,1319.641113 662.486267,1304.756592 666.231812,1290.025635 
	C667.439880,1285.274170 669.411499,1280.472656 672.086304,1276.382324 
	C681.716431,1261.655518 701.445435,1260.884277 711.484070,1275.294434 
	C715.723450,1281.379761 718.516357,1288.901855 720.301941,1296.179321 
	C724.186340,1312.011475 723.339417,1327.932373 717.366211,1343.233398 
	C713.633301,1352.795654 707.071960,1359.432983 696.180664,1360.568237 
	C684.772827,1361.757324 675.959106,1357.370117 670.540649,1347.232788 
	C668.677917,1343.747925 667.603394,1339.841797 666.002563,1335.311646 
z"/>
<path fill="#FCFDFF" opacity="1.000000" stroke="none" 
	d="
M549.592163,1263.509277 
	C558.574158,1267.127075 563.857605,1273.392090 566.842651,1281.473999 
	C574.634094,1302.568481 574.896118,1323.811035 566.208923,1344.651611 
	C560.109253,1359.284546 547.312500,1365.721680 533.377502,1362.344360 
	C525.815369,1360.511597 519.914551,1356.115356 516.447571,1349.412109 
	C503.816772,1324.991333 503.727814,1300.143921 516.378357,1275.837891 
	C522.757385,1263.581787 533.513855,1260.148193 549.592163,1263.509277 
z"/>
<path fill="#FAFCFF" opacity="1.000000" stroke="none" 
	d="
M1409.481201,1262.607788 
	C1429.942993,1264.394653 1437.359619,1282.005005 1433.174683,1300.461426 
	C1430.874146,1310.606812 1423.288452,1315.757080 1413.475220,1317.926392 
	C1404.407349,1319.931152 1388.315186,1319.816772 1373.914917,1315.376587 
	C1373.084106,1298.571655 1376.560913,1282.962280 1388.755859,1270.145752 
	C1394.052979,1264.578491 1401.075928,1262.556885 1409.481201,1262.607788 
z"/>
</svg>